<svg width="16" height="16" viewBox="0 0 16 16" fill="none" xmlns="http://www.w3.org/2000/svg">
<circle cx="8" cy="8" r="8" fill="#374151"/>
<path d="M11.6495 5.6985L9.73663 5L6.26293 5L4.26327 5.6985L6.12239 6.43041H9.79126L11.1884 5.88011L11.6495 5.6985Z" fill="#F68742"/>
<path d="M13 7.0437L11.6495 5.6985L11.1884 5.88011L9.79126 6.43041L11.1884 8.36018L13 7.0437Z" fill="#F9B178"/>
<path d="M6.12239 6.43041L4.90834 8.36018H11.1884L9.79126 6.43041H6.12239Z" fill="#E44C12"/>
<path d="M6.12239 6.43041L4.26327 5.6985L3 7.04378L4.90834 8.36018L6.12239 6.43041Z" fill="#F36921"/>
<path d="M4.90834 8.36018L7.99923 13L8.26273 12.6063L11.1884 8.36018H4.90834Z" fill="#BD3812"/>
<path d="M7.99923 13L13 7.0437L11.1884 8.36018L8.26273 12.6063L7.99923 13Z" fill="#792715"/>
<path d="M4.90834 8.36018L3 7.04378L7.99923 13L4.90834 8.36018Z" fill="#962D16"/>
</svg>
